<svg data-v-0dd9719b="" version="1.0" xmlns="http://www.w3.org/2000/svg" xmlns:xlink="http://www.w3.org/1999/xlink" width="100%" height="100%" viewBox="0 0 340.000000 250.000000" preserveAspectRatio="xMidYMid meet" color-interpolation-filters="sRGB" style="margin: auto;"> <rect data-v-0dd9719b="" x="0" y="0" width="100%" height="100%" fill="#fff" fill-opacity="1" class="background"></rect> <rect data-v-0dd9719b="" x="0" y="0" width="100%" height="100%" fill="url(#watermark)" fill-opacity="1" class="watermarklayer"></rect> <g data-v-0dd9719b="" fill="#2ca6e0" class="icon-text-wrapper icon-svg-group iconsvg" transform="translate(95.41999816894531,90.35796737670898)"><g class="iconsvg-imagesvg" transform="translate(0,0)"><g><rect fill="#2ca6e0" fill-opacity="0" stroke-width="2" x="0" y="0" width="60.00000000000001" height="69.28406466512703" class="image-rect"></rect> <svg x="0" y="0" width="60.00000000000001" height="69.28406466512703" filtersec="colorsb743774647" class="image-svg-svg primary" style="overflow: visible;"><svg version="1.1" id="图层_1" xmlns="http://www.w3.org/2000/svg" xmlns:xlink="http://www.w3.org/1999/xlink" x="0px" y="0px" viewBox="1.789999008178711 0.7300000190734863 96.36000061035156 111.2699966430664" enable-background="new 0 0 100 112" xml:space="preserve">
<g>
	<path fill="#036EB7" d="M31.44,45.67l18.52,10.7l18.53-10.7L49.96,34.97L31.44,45.67z M49.97,0.73L1.79,28.55l15.42,8.9
		l32.76-18.91l32.76,18.91l15.42-8.9L49.97,0.73z"></path>
	<path fill="#2CA6E0" d="M31.44,101.3L49.97,112V94.2L31.44,83.5V101.3z M1.79,84.18l15.42,8.9V37.45h0l-15.42-8.9V84.18z
		 M49.96,56.37l-18.52-10.7v21.39l18.52,10.7l0,0L49.96,56.37L49.96,56.37z"></path>
	<path fill="#171C61" d="M82.73,37.45L82.73,37.45l0,37.83l0,0L49.97,94.2V112l48.18-27.82V28.55L82.73,37.45z M68.49,45.67
		l-18.53,10.7v21.39l18.53-10.7V45.67z"></path>
</g>
</svg></svg> <!----></g></g> <g transform="translate(67,10.787033081054688)"><g data-gra="path-name" fill-rule="" class="tp-name iconsvg-namesvg"><g transform="scale(1)"><g><path d="M18.33-15.15L35.95-47.71 43.48-47.71 17.55 0 15.86 0 0-47.71 7.54-47.71 18.33-15.15ZM48.55-47.71L43.48 0 50.31 0 52.59-21.39 72.61-21.39 70.33 0 77.09 0 82.16-47.71 75.34-47.71 73.32-28.08 53.23-28.08 55.31-47.71 48.55-47.71Z" transform="translate(0, 47.709999084472656)"></path></g> <!----> <!----> <!----> <!----> <!----> <!----> <!----></g></g> <!----></g></g><defs v-gra="od"></defs></svg>